<mxfile host="drawio-plugin" modified="2022-06-08T18:11:43.830Z" agent="5.0 (Windows NT 6.2; Win64; x64) AppleWebKit/537.36 (KHTML, like Gecko) Chrome/97.0.4692.45 Safari/537.36" version="15.5.4" etag="GNYM2W_M4SsfmV7xZsdN" type="embed"><diagram id="XLW0mA91zo7W8DtsutHM" name="Page-1"><mxGraphModel dx="778" dy="753" grid="1" gridSize="10" guides="1" tooltips="1" connect="1" arrows="1" fold="1" page="1" pageScale="1" pageWidth="850" pageHeight="1100" math="0" shadow="0"><root><mxCell id="0"/><mxCell id="1" parent="0"/><mxCell id="2" value="graphql-demo&lt;br&gt;graphql api&lt;br&gt;:8081" style="rounded=1;whiteSpace=wrap;html=1;" vertex="1" parent="1"><mxGeometry x="280" y="140" width="120" height="60" as="geometry"/></mxCell><mxCell id="3" value="sessions&lt;br&gt;reactive rest api&lt;br&gt;:8080" style="rounded=1;whiteSpace=wrap;html=1;" vertex="1" parent="1"><mxGeometry x="80" y="330" width="120" height="60" as="geometry"/></mxCell><mxCell id="4" value="hosts&lt;br&gt;grpc server&lt;br&gt;:9090" style="rounded=1;whiteSpace=wrap;html=1;" vertex="1" parent="1"><mxGeometry x="280" y="329" width="120" height="60" as="geometry"/></mxCell><mxCell id="5" value="ratings-ui&lt;br&gt;:8090" style="rounded=1;whiteSpace=wrap;html=1;" vertex="1" parent="1"><mxGeometry x="480" y="140" width="120" height="60" as="geometry"/></mxCell><mxCell id="6" value="ratings&lt;br&gt;rsocket server&lt;br&gt;:7000" style="rounded=1;whiteSpace=wrap;html=1;" vertex="1" parent="1"><mxGeometry x="480" y="330" width="120" height="60" as="geometry"/></mxCell><mxCell id="7" value="" style="endArrow=classic;html=1;rounded=0;exitX=0.25;exitY=1;exitDx=0;exitDy=0;entryX=0.5;entryY=0;entryDx=0;entryDy=0;" edge="1" parent="1" source="2" target="3"><mxGeometry relative="1" as="geometry"><mxPoint x="180" y="280" as="sourcePoint"/><mxPoint x="280" y="280" as="targetPoint"/><Array as="points"><mxPoint x="310" y="240"/><mxPoint x="140" y="240"/></Array></mxGeometry></mxCell><mxCell id="8" value="REST" style="edgeLabel;resizable=0;html=1;align=center;verticalAlign=middle;" connectable="0" vertex="1" parent="7"><mxGeometry relative="1" as="geometry"/></mxCell><mxCell id="9" value="" style="endArrow=classic;html=1;rounded=0;exitX=0.5;exitY=1;exitDx=0;exitDy=0;entryX=0.5;entryY=0;entryDx=0;entryDy=0;" edge="1" parent="1" source="2" target="4"><mxGeometry relative="1" as="geometry"><mxPoint x="350" y="390" as="sourcePoint"/><mxPoint x="450" y="390" as="targetPoint"/></mxGeometry></mxCell><mxCell id="10" value="gRPC" style="edgeLabel;resizable=0;html=1;align=center;verticalAlign=middle;" connectable="0" vertex="1" parent="9"><mxGeometry relative="1" as="geometry"/></mxCell><mxCell id="14" value="" style="endArrow=classic;startArrow=classic;html=1;rounded=0;entryX=0.5;entryY=1;entryDx=0;entryDy=0;exitX=0.5;exitY=0;exitDx=0;exitDy=0;" edge="1" parent="1" source="6" target="5"><mxGeometry width="50" height="50" relative="1" as="geometry"><mxPoint x="380" y="410" as="sourcePoint"/><mxPoint x="430" y="360" as="targetPoint"/></mxGeometry></mxCell><mxCell id="15" value="rSocket" style="edgeLabel;resizable=0;html=1;align=center;verticalAlign=middle;" connectable="0" vertex="1" parent="1"><mxGeometry x="570" y="270" as="geometry"/></mxCell><mxCell id="16" value="" style="endArrow=none;dashed=1;html=1;dashPattern=1 3;strokeWidth=2;rounded=0;exitX=0.75;exitY=1;exitDx=0;exitDy=0;entryX=0.25;entryY=0;entryDx=0;entryDy=0;" edge="1" parent="1" source="2" target="6"><mxGeometry width="50" height="50" relative="1" as="geometry"><mxPoint x="380" y="350" as="sourcePoint"/><mxPoint x="430" y="300" as="targetPoint"/><Array as="points"><mxPoint x="370" y="240"/><mxPoint x="510" y="240"/></Array></mxGeometry></mxCell><mxCell id="17" value="rSocket" style="edgeLabel;resizable=0;html=1;align=center;verticalAlign=middle;" connectable="0" vertex="1" parent="1"><mxGeometry x="440" y="240" as="geometry"/></mxCell></root></mxGraphModel></diagram></mxfile>